<svg id="Group_433" data-name="Group 433" xmlns="http://www.w3.org/2000/svg" width="139.51" height="84.141" viewBox="0 0 139.51 84.141">
  <path id="Path_3333" data-name="Path 3333" d="M16.567,27.931H3.413V41.085H16.567Zm-3.624,9.532H7.037V31.555h5.907Z" transform="translate(4.317 35.326)" fill="#fff"/>
  <path id="Path_3334" data-name="Path 3334" d="M24.729,27.931H11.573V41.085H24.729Zm-3.624,9.532H15.2V31.555h5.909Z" transform="translate(14.637 35.326)" fill="#fff"/>
  <path id="Path_3335" data-name="Path 3335" d="M51.372,27.931H19.735V41.085H51.372ZM47.75,37.463H23.359V31.555H47.75Z" transform="translate(24.96 35.326)" fill="#fff"/>
  <path id="Path_3336" data-name="Path 3336" d="M49.212,27.931H36.056V41.085H49.212Zm-3.621,9.532H39.682V31.555h5.909Z" transform="translate(45.603 35.326)" fill="#fff"/>
  <path id="Path_3337" data-name="Path 3337" d="M57.374,27.931H44.218V41.085H57.374Zm-3.621,9.532H47.844V31.555h5.909Z" transform="translate(55.926 35.326)" fill="#fff"/>
  <path id="Path_3338" data-name="Path 3338" d="M65.534,27.931H52.38V41.085H65.534ZM61.91,37.463H56V31.555H61.91Z" transform="translate(66.249 35.326)" fill="#fff"/>
  <path id="Path_3339" data-name="Path 3339" d="M16.567,20.765H3.413V33.919H16.567ZM12.943,30.3H7.037V24.389h5.907Z" transform="translate(4.317 26.263)" fill="#fff"/>
  <path id="Path_3340" data-name="Path 3340" d="M24.729,20.765H11.573V33.919H24.729ZM21.105,30.3H15.2V24.389h5.909Z" transform="translate(14.637 26.263)" fill="#fff"/>
  <path id="Path_3341" data-name="Path 3341" d="M32.891,20.765H19.735V33.919H32.891ZM29.267,30.3H23.359V24.389h5.909Z" transform="translate(24.96 26.263)" fill="#fff"/>
  <path id="Path_3342" data-name="Path 3342" d="M41.051,20.765H27.9V33.919H41.051ZM37.43,30.3H31.521V24.389H37.43Z" transform="translate(35.281 26.263)" fill="#fff"/>
  <path id="Path_3343" data-name="Path 3343" d="M49.212,20.765H36.056V33.919H49.212ZM45.591,30.3H39.682V24.389h5.909Z" transform="translate(45.603 26.263)" fill="#fff"/>
  <path id="Path_3344" data-name="Path 3344" d="M57.374,20.765H44.218V33.919H57.374ZM53.753,30.3H47.844V24.389h5.909Z" transform="translate(55.926 26.263)" fill="#fff"/>
  <path id="Path_3345" data-name="Path 3345" d="M16.567,13.6H3.413V26.755H16.567Zm-3.624,9.532H7.037V17.223h5.907Z" transform="translate(4.317 17.2)" fill="#fff"/>
  <path id="Path_3346" data-name="Path 3346" d="M24.729,13.6H11.573V26.755H24.729Zm-3.624,9.532H15.2V17.223h5.909Z" transform="translate(14.637 17.2)" fill="#fff"/>
  <path id="Path_3347" data-name="Path 3347" d="M32.891,13.6H19.735V26.755H32.891Zm-3.624,9.532H23.359V17.223h5.909Z" transform="translate(24.96 17.2)" fill="#fff"/>
  <path id="Path_3348" data-name="Path 3348" d="M41.051,13.6H27.9V26.755H41.051ZM37.43,23.131H31.521V17.223H37.43Z" transform="translate(35.281 17.2)" fill="#fff"/>
  <path id="Path_3349" data-name="Path 3349" d="M49.212,13.6H36.056V26.755H49.212Zm-3.621,9.532H39.682V17.223h5.909Z" transform="translate(45.603 17.2)" fill="#fff"/>
  <path id="Path_3350" data-name="Path 3350" d="M57.374,13.6H44.218V26.755H57.374Zm-3.621,9.532H47.844V17.223h5.909Z" transform="translate(55.926 17.2)" fill="#fff"/>
  <path id="Path_3352" data-name="Path 3352" d="M72.339,23.071v-.861c0-.405.528-.858,1.282-.858h9.431a5,5,0,0,0,0-9.99H56.458A1.331,1.331,0,0,1,55.179,9.9a1.281,1.281,0,0,1,1.28-1.28H67.434a4.906,4.906,0,0,0,4.9-4.9l0-3.716L68.718,0l0,3.716A1.284,1.284,0,0,1,67.434,5H56.458a4.947,4.947,0,0,0-4.9,5.084,4.906,4.906,0,0,0,4.9,4.9H83.051a1.334,1.334,0,0,1,1.28,1.463,1.283,1.283,0,0,1-1.28,1.28H73.621a4.711,4.711,0,0,0-4.9,4.482v.861H0v61.07H139.51V23.071Zm63.547,57.446H3.624V26.693H135.886Z" fill="#fff"/>
  <path id="Path_3351" data-name="Path 3351" d="M65.534,13.6H52.38V38.217H65.534Zm-3.624,21H56V17.223H61.91Z" transform="translate(66.249 17.2)" fill="#fff"/>
</svg>
